<svg xmlns="http://www.w3.org/2000/svg" width="780" height="440" viewBox="0 0 780 440" role="img" aria-labelledby="title desc">
  <title id="title">KubeVirt manager article cover</title>
  <desc id="desc">Обложка статьи о внутреннем dev cloud на KubeVirt</desc>
  <defs>
    <linearGradient id="bg" x1="0" y1="0" x2="1" y2="1">
      <stop offset="0" stop-color="#10202f"/>
      <stop offset="0.56" stop-color="#17364d"/>
      <stop offset="1" stop-color="#155e63"/>
    </linearGradient>
    <linearGradient id="panel" x1="0" y1="0" x2="1" y2="1">
      <stop offset="0" stop-color="#ffffff" stop-opacity="0.15"/>
      <stop offset="1" stop-color="#ffffff" stop-opacity="0.07"/>
    </linearGradient>
    <filter id="shadow" x="-20%" y="-20%" width="140%" height="140%">
      <feDropShadow dx="0" dy="16" stdDeviation="18" flood-color="#071018" flood-opacity="0.32"/>
    </filter>
  </defs>

  <rect width="780" height="440" fill="url(#bg)"/>
  <g opacity="0.22" stroke="#d6f3ff" stroke-width="1">
    <path d="M0 88h780M0 176h780M0 264h780M0 352h780"/>
    <path d="M130 0v440M260 0v440M390 0v440M520 0v440M650 0v440"/>
  </g>

  <g filter="url(#shadow)">
    <rect x="430" y="72" width="274" height="264" rx="10" fill="url(#panel)" stroke="#b7d8e8" stroke-opacity="0.34"/>
    <rect x="454" y="100" width="226" height="34" rx="6" fill="#e8f7ff" fill-opacity="0.15"/>
    <rect x="454" y="154" width="226" height="34" rx="6" fill="#e8f7ff" fill-opacity="0.10"/>
    <rect x="454" y="208" width="226" height="34" rx="6" fill="#e8f7ff" fill-opacity="0.10"/>
    <rect x="454" y="262" width="134" height="34" rx="6" fill="#4fd1c5" fill-opacity="0.28"/>
    <circle cx="474" cy="117" r="5" fill="#30d158"/>
    <circle cx="474" cy="171" r="5" fill="#30d158"/>
    <circle cx="474" cy="225" r="5" fill="#f7b955"/>
  </g>

  <g fill="none" stroke-linecap="round" stroke-linejoin="round" opacity="0.62">
    <path d="M398 318h18c26 0 47-21 47-47V142" stroke="#79c7ff" stroke-width="8"/>
    <path d="M372 198h42c18 0 33-15 33-33v-16" stroke="#4fd1c5" stroke-width="8"/>
    <path d="M350 154h16c13 0 24-11 24-24v-4" stroke="#f7b955" stroke-width="8"/>
  </g>

  <g>
    <rect x="82" y="96" width="248" height="84" rx="10" fill="#ffffff" fill-opacity="0.10" stroke="#b7d8e8" stroke-opacity="0.30"/>
    <text x="106" y="132" fill="#ffffff" font-family="Inter, Arial, sans-serif" font-size="18" font-weight="700">KubeVirt</text>
    <text x="106" y="158" fill="#b9d5e3" font-family="Inter, Arial, sans-serif" font-size="14">VirtualMachine · VMI · PVC</text>
  </g>

  <text x="80" y="254" fill="#ffffff" font-family="Inter, Arial, sans-serif" font-size="43" font-weight="800">Dev cloud</text>
  <text x="80" y="304" fill="#ffffff" font-family="Inter, Arial, sans-serif" font-size="43" font-weight="800">на KubeVirt</text>
  <text x="82" y="344" fill="#d5eaf3" font-family="Inter, Arial, sans-serif" font-size="18">Self-service VM для разработки в дев-контуре</text>

  <g transform="translate(82 374)">
    <rect width="78" height="26" rx="5" fill="#4fd1c5" fill-opacity="0.22" stroke="#4fd1c5" stroke-opacity="0.55"/>
    <text x="15" y="18" fill="#eafffb" font-family="SFMono-Regular, Consolas, monospace" font-size="12" font-weight="700">Go</text>
    <rect x="90" width="118" height="26" rx="5" fill="#79c7ff" fill-opacity="0.18" stroke="#79c7ff" stroke-opacity="0.50"/>
    <text x="106" y="18" fill="#eaf7ff" font-family="SFMono-Regular, Consolas, monospace" font-size="12" font-weight="700">client-go</text>
    <rect x="220" width="104" height="26" rx="5" fill="#f7b955" fill-opacity="0.20" stroke="#f7b955" stroke-opacity="0.55"/>
    <text x="236" y="18" fill="#fff6df" font-family="SFMono-Regular, Consolas, monospace" font-size="12" font-weight="700">Keycloak</text>
  </g>
</svg>
